HIERARCHY
ROOT Hips
{
	OFFSET 0.000000 83.214638 0.000000
	CHANNELS 6 Xposition Yposition Zposition Xrotation Yrotation Zrotation
	JOINT Pelvis
	{
		OFFSET 0.000000 0.000000 0.000000
		CHANNELS 3 Xrotation Yrotation Zrotation
		JOINT LeftUpLeg
		{
			OFFSET 8.479700 -4.795502 -0.379100
			CHANNELS 3 Xrotation Yrotation Zrotation
			JOINT LeftLeg
			{
				OFFSET 0.024144 -32.555107 0.112900
				CHANNELS 3 Xrotation Yrotation Zrotation
				JOINT LeftFoot
				{
					OFFSET -0.024144 -32.638630 -3.012600
					CHANNELS 3 Xrotation Yrotation Zrotation
					JOINT LeftToeBase
					{
						OFFSET 0.970200 -13.225400 11.864200
						CHANNELS 3 Xrotation Yrotation Zrotation
						End Site
						{
							OFFSET 0.000000 12.319262 0.000000
						}
					}
					JOINT LFootTongue
					{
						OFFSET 1.142400 -1.059800 6.665200
						CHANNELS 3 Xrotation Yrotation Zrotation
						End Site
						{
							OFFSET 0.000000 12.319262 0.000000
						}
					}
				}
				JOINT LeftPantLeg
				{
					OFFSET 0.918482 -16.533964 -2.284700
					CHANNELS 3 Xrotation Yrotation Zrotation
					End Site
					{
						OFFSET 0.350399 24.744368 0.000000
					}
				}
			}
		}
		JOINT RightUpLeg
		{
			OFFSET -8.479700 -4.795502 -0.379100
			CHANNELS 3 Xrotation Yrotation Zrotation
			JOINT RightLeg
			{
				OFFSET -0.023144 -32.555092 0.112900
				CHANNELS 3 Xrotation Yrotation Zrotation
				JOINT RightFoot
				{
					OFFSET 0.023144 -32.638641 -3.012700
					CHANNELS 3 Xrotation Yrotation Zrotation
					JOINT RightToeBase
					{
						OFFSET -0.970200 -13.225400 11.864200
						CHANNELS 3 Xrotation Yrotation Zrotation
						End Site
						{
							OFFSET 0.000000 12.319244 0.000000
						}
					}
					JOINT RFootTongue
					{
						OFFSET -1.142200 -1.059800 6.665200
						CHANNELS 3 Xrotation Yrotation Zrotation
						End Site
						{
							OFFSET 0.000000 12.319243 0.000000
						}
					}
				}
				JOINT RightPantLeg
				{
					OFFSET -0.919482 -16.533978 -2.284800
					CHANNELS 3 Xrotation Yrotation Zrotation
					End Site
					{
						OFFSET -0.350400 24.744419 0.000000
					}
				}
			}
		}
	}
	JOINT Spine
	{
		OFFSET 0.000000 7.722000 1.166200
		CHANNELS 3 Xrotation Yrotation Zrotation
		JOINT Spine1
		{
			OFFSET 0.000000 12.024101 0.248800
			CHANNELS 3 Xrotation Yrotation Zrotation
			JOINT Spine2
			{
				OFFSET 0.000000 11.502998 -0.491200
				CHANNELS 3 Xrotation Yrotation Zrotation
				JOINT Neck
				{
					OFFSET 0.000000 18.430702 -3.123100
					CHANNELS 3 Xrotation Yrotation Zrotation
					JOINT Head
					{
						OFFSET 0.000000 9.051102 1.034000
						CHANNELS 3 Xrotation Yrotation Zrotation
						JOINT HairB
						{
							OFFSET 0.208400 24.786102 24.822300
							CHANNELS 3 Xrotation Yrotation Zrotation
							End Site
							{
								OFFSET 0.000000 32.263779 0.000000
							}
						}
						JOINT HairA
						{
							OFFSET -7.081100 24.428299 23.196600
							CHANNELS 3 Xrotation Yrotation Zrotation
							End Site
							{
								OFFSET 0.000000 32.263779 0.000000
							}
						}
						JOINT Hat
						{
							OFFSET 16.728800 15.048294 -15.439601
							CHANNELS 3 Xrotation Yrotation Zrotation
							End Site
							{
								OFFSET 0.000000 32.263779 0.000000
							}
						}
					}
				}
				JOINT LeftShoulder
				{
					OFFSET 6.197800 13.665199 -4.064700
					CHANNELS 3 Xrotation Yrotation Zrotation
					JOINT LeftArm
					{
						OFFSET 7.778100 -0.187103 -1.709300
						CHANNELS 3 Xrotation Yrotation Zrotation
						JOINT LeftForeArm
						{
							OFFSET 22.049376 0.000000 0.000000
							CHANNELS 3 Xrotation Yrotation Zrotation
							JOINT LeftHand
							{
								OFFSET 23.009392 0.000000 0.000000
								CHANNELS 3 Xrotation Yrotation Zrotation
								JOINT LeftHandThumb1
								{
									OFFSET 3.507191 -2.063065 3.133727
									CHANNELS 3 Xrotation Yrotation Zrotation
									JOINT LeftHandThumb2
									{
										OFFSET 3.101337 -1.790558 1.790558
										CHANNELS 3 Xrotation Yrotation Zrotation
										JOINT LeftHandThumb3
										{
											OFFSET 3.058640 -1.765907 1.765906
											CHANNELS 3 Xrotation Yrotation Zrotation
											End Site
											{
												OFFSET -0.415260 3.926476 -0.049563
											}
										}
									}
								}
								JOINT LeftHandIndex1
								{
									OFFSET 11.334419 -0.901459 3.706815
									CHANNELS 3 Xrotation Yrotation Zrotation
									JOINT LeftHandIndex2
									{
										OFFSET 3.283112 0.000000 0.000000
										CHANNELS 3 Xrotation Yrotation Zrotation
										JOINT LeftHandIndex3
										{
											OFFSET 3.323853 0.000000 0.000000
											CHANNELS 3 Xrotation Yrotation Zrotation
											End Site
											{
												OFFSET -1.135597 3.097809 0.402452
											}
										}
									}
								}
								JOINT LeftHandMiddle1
								{
									OFFSET 11.335861 0.000000 0.000000
									CHANNELS 3 Xrotation Yrotation Zrotation
									JOINT LeftHandMiddle2
									{
										OFFSET 3.410492 0.000000 0.000000
										CHANNELS 3 Xrotation Yrotation Zrotation
										JOINT LeftHandMiddle3
										{
											OFFSET 3.312172 0.000000 0.000000
											CHANNELS 3 Xrotation Yrotation Zrotation
											End Site
											{
												OFFSET -1.150200 3.080154 0.400270
											}
										}
									}
								}
								JOINT LeftHandRing1
								{
									OFFSET 11.514786 -0.013176 -3.003090
									CHANNELS 3 Xrotation Yrotation Zrotation
									JOINT LeftHandRing2
									{
										OFFSET 3.053307 0.000000 0.000000
										CHANNELS 3 Xrotation Yrotation Zrotation
										JOINT LeftHandRing3
										{
											OFFSET 3.295807 0.000000 0.000000
											CHANNELS 3 Xrotation Yrotation Zrotation
											End Site
											{
												OFFSET -1.281006 3.013344 0.375733
											}
										}
									}
								}
								JOINT LeftHandPinky1
								{
									OFFSET 10.518692 -0.960396 -5.730441
									CHANNELS 3 Xrotation Yrotation Zrotation
									JOINT LeftHandPinky2
									{
										OFFSET 2.861649 0.000000 0.000000
										CHANNELS 3 Xrotation Yrotation Zrotation
										JOINT LeftHandPinky3
										{
											OFFSET 2.863380 0.000000 0.000000
											CHANNELS 3 Xrotation Yrotation Zrotation
											End Site
											{
												OFFSET -0.843597 2.711159 0.369971
											}
										}
									}
								}
							}
							JOINT LSleeve
							{
								OFFSET 6.676277 -0.344902 -1.011730
								CHANNELS 3 Xrotation Yrotation Zrotation
								End Site
								{
									OFFSET 0.000000 14.885353 0.000000
								}
							}
						}
					}
				}
				JOINT RightShoulder
				{
					OFFSET -6.197800 13.665199 -4.064700
					CHANNELS 3 Xrotation Yrotation Zrotation
					JOINT RightArm
					{
						OFFSET -7.778100 -0.187103 -1.709300
						CHANNELS 3 Xrotation Yrotation Zrotation
						JOINT RightForeArm
						{
							OFFSET -22.049376 0.000000 0.000000
							CHANNELS 3 Xrotation Yrotation Zrotation
							JOINT RightHand
							{
								OFFSET -23.009392 0.000000 0.000000
								CHANNELS 3 Xrotation Yrotation Zrotation
								JOINT RightHandThumb1
								{
									OFFSET -3.507191 -2.063065 3.133727
									CHANNELS 3 Xrotation Yrotation Zrotation
									JOINT RightHandThumb2
									{
										OFFSET -3.101337 -1.790558 1.790558
										CHANNELS 3 Xrotation Yrotation Zrotation
										JOINT RightHandThumb3
										{
											OFFSET -3.058640 -1.765907 1.765906
											CHANNELS 3 Xrotation Yrotation Zrotation
											End Site
											{
												OFFSET 0.415260 3.926476 -0.049563
											}
										}
									}
								}
								JOINT RightHandIndex1
								{
									OFFSET -11.334419 -0.901459 3.706815
									CHANNELS 3 Xrotation Yrotation Zrotation
									JOINT RightHandIndex2
									{
										OFFSET -3.283112 0.000000 0.000000
										CHANNELS 3 Xrotation Yrotation Zrotation
										JOINT RightHandIndex3
										{
											OFFSET -3.323853 0.000000 0.000000
											CHANNELS 3 Xrotation Yrotation Zrotation
											End Site
											{
												OFFSET 1.135597 3.097809 0.402452
											}
										}
									}
								}
								JOINT RightHandMiddle1
								{
									OFFSET -11.335861 0.000000 0.000000
									CHANNELS 3 Xrotation Yrotation Zrotation
									JOINT RightHandMiddle2
									{
										OFFSET -3.410492 0.000000 0.000000
										CHANNELS 3 Xrotation Yrotation Zrotation
										JOINT RightHandMiddle3
										{
											OFFSET -3.312172 0.000000 0.000000
											CHANNELS 3 Xrotation Yrotation Zrotation
											End Site
											{
												OFFSET 1.150200 3.080154 0.400270
											}
										}
									}
								}
								JOINT RightHandRing1
								{
									OFFSET -11.514786 -0.013176 -3.003090
									CHANNELS 3 Xrotation Yrotation Zrotation
									JOINT RightHandRing2
									{
										OFFSET -3.053307 0.000000 0.000000
										CHANNELS 3 Xrotation Yrotation Zrotation
										JOINT RightHandRing3
										{
											OFFSET -3.295807 0.000000 0.000000
											CHANNELS 3 Xrotation Yrotation Zrotation
											End Site
											{
												OFFSET 1.281006 3.013344 0.375733
											}
										}
									}
								}
								JOINT RightHandPinky1
								{
									OFFSET -10.518692 -0.960396 -5.730441
									CHANNELS 3 Xrotation Yrotation Zrotation
									JOINT RightHandPinky2
									{
										OFFSET -2.861649 0.000000 0.000000
										CHANNELS 3 Xrotation Yrotation Zrotation
										JOINT RightHandPinky3
										{
											OFFSET -2.863380 0.000000 0.000000
											CHANNELS 3 Xrotation Yrotation Zrotation
											End Site
											{
												OFFSET 0.843597 2.711159 0.369971
											}
										}
									}
								}
							}
							JOINT RSleeve
							{
								OFFSET -6.676277 -0.344902 -1.011730
								CHANNELS 3 Xrotation Yrotation Zrotation
								End Site
								{
									OFFSET 0.000000 14.885353 0.000000
								}
							}
						}
					}
				}
				JOINT Backpack
				{
					OFFSET 0.000000 -2.471497 36.677502
					CHANNELS 3 Xrotation Yrotation Zrotation
					End Site
					{
						OFFSET 0.000000 20.427315 0.000000
					}
				}
				JOINT Hood
				{
					OFFSET 0.000000 18.754097 -10.431000
					CHANNELS 3 Xrotation Yrotation Zrotation
					JOINT Hood1
					{
						OFFSET 0.000000 -5.011002 -7.685901
						CHANNELS 3 Xrotation Yrotation Zrotation
						End Site
						{
							OFFSET 0.000000 9.175140 0.000000
						}
					}
				}
				JOINT LHoodieString
				{
					OFFSET 5.250500 16.397697 3.089900
					CHANNELS 3 Xrotation Yrotation Zrotation
					JOINT LHoodieString1
					{
						OFFSET 0.257700 -6.364304 3.694600
						CHANNELS 3 Xrotation Yrotation Zrotation
						JOINT LHoodieString2
						{
							OFFSET 0.000000 -9.643799 2.679100
							CHANNELS 3 Xrotation Yrotation Zrotation
							End Site
							{
								OFFSET 0.000000 10.009018 0.000000
							}
						}
					}
				}
				JOINT RHoodieString
				{
					OFFSET -5.250500 16.397697 3.089900
					CHANNELS 3 Xrotation Yrotation Zrotation
					JOINT RHoodieString1
					{
						OFFSET -0.257700 -6.364304 3.694600
						CHANNELS 3 Xrotation Yrotation Zrotation
						JOINT RHoodieString2
						{
							OFFSET 0.000000 -9.643799 2.679100
							CHANNELS 3 Xrotation Yrotation Zrotation
							End Site
							{
								OFFSET 0.000000 10.009018 0.000000
							}
						}
					}
				}
			}
			JOINT LBackpack_Strap
			{
				OFFSET 15.223200 -7.719803 -6.610900
				CHANNELS 3 Xrotation Yrotation Zrotation
				End Site
				{
					OFFSET 0.000000 16.040596 0.000000
				}
			}
			JOINT RBackpack_Strap
			{
				OFFSET -15.223000 -7.719803 -6.610900
				CHANNELS 3 Xrotation Yrotation Zrotation
				End Site
				{
					OFFSET 0.000000 16.040596 0.000000
				}
			}
		}
	}
	JOINT BoyFacialAnim_Joint
	{
		OFFSET 1.000000 -82.208099 -1.550900
		CHANNELS 3 Xrotation Yrotation Zrotation
		End Site
		{
			OFFSET 0.000000 30.012791 0.000000
		}
	}
}
MOTION
Frames: 4
Frame Time: 0.033333
-0.208008 77.252792 -0.573472 -5.145005 -43.036564 -3.314428 0.000000 0.000001 -0.000000 -28.138392 5.706101 14.038501 33.952000 -14.177893 -0.459412 -3.802940 0.631800 -7.947956 -0.000000 -0.000000 0.000000 -0.000000 -0.000000 -0.000000 -0.000000 -0.000001 0.000000 -5.122019 -13.753955 -15.932775 32.863042 -8.562724 0.005834 -20.683350 -4.064545 16.838867 -0.000000 -0.000000 0.000000 -0.000000 -0.000000 0.000000 -0.000002 -0.000000 -0.000001 5.937778 4.652651 -1.199572 12.041191 9.052280 -2.995776 12.041197 9.052272 -2.995770 -4.656180 -1.415020 0.061962 -6.918938 20.250334 -0.260685 -0.000000 0.000000 0.000000 -0.000000 0.000000 0.000000 -0.000000 0.000000 0.000000 1.359700 -0.833535 -7.980423 -15.041125 1.338369 -62.879965 9.657257 -46.629783 6.090962 16.256012 0.543384 18.822270 8.855858 4.291269 -5.582851 -0.331952 0.038623 0.784183 0.000001 -0.000001 0.000002 -0.918585 -7.212856 -3.787685 0.039701 0.802204 -16.419350 0.000001 -0.000001 -0.000004 1.880123 9.405123 -14.045510 -0.421209 -1.513184 -21.432860 -0.000002 0.000003 -0.000006 2.591872 14.873794 -30.605562 -0.563931 -2.660576 -31.280323 -0.000001 -0.000001 -0.000002 4.195755 18.529714 -34.203241 -0.701268 -5.760184 -38.579681 0.000001 0.000001 -0.000002 -0.000001 -0.000001 0.000001 1.341273 9.474559 9.907228 0.673991 -24.375465 59.653233 -6.615545 41.421976 7.923393 6.456405 12.413250 11.233815 -9.132104 -4.386055 -0.301374 7.656821 -18.672504 -2.849415 0.000000 0.000001 -0.000000 -1.100118 -0.894452 4.500050 0.137239 -1.117242 16.942479 -0.000001 0.000000 0.000004 -0.666909 -2.931634 12.395122 -0.646840 1.795046 30.240990 -0.000002 0.000001 -0.000004 2.449986 -7.448819 21.240068 -0.971167 3.730639 36.902122 -0.000001 0.000001 0.000002 3.673018 -10.295261 23.823345 -1.423851 7.814699 40.107004 -0.000001 -0.000003 0.000001 0.000000 0.000000 -0.000002 0.000000 -0.000001 0.000001 0.000000 -0.000001 0.000001 0.000000 -0.000001 0.000001 0.000000 -0.000001 0.000001 0.000000 -0.000001 0.000001 0.000000 -0.000001 0.000001 0.000000 -0.000001 0.000001 0.000000 -0.000001 0.000001 0.000000 -0.000001 0.000001 -0.000001 0.000001 -0.000000 -0.000001 0.000001 -0.000000 0.000000 0.000001 -0.000000 
-0.180389 77.258163 -0.566871 -5.595505 -43.062738 -3.649534 -0.000000 0.000002 -0.000000 -27.754298 5.712648 13.994516 33.958659 -14.133225 -0.334057 -3.926121 0.671727 -8.043250 0.000000 0.000000 0.000000 0.000000 0.000000 -0.000000 -0.000000 0.000000 0.000000 -4.761149 -13.751092 -15.825972 32.762481 -8.618099 -0.181581 -20.622990 -4.045643 16.952287 -0.000000 0.000000 0.000000 -0.000000 0.000000 0.000000 -0.000000 -0.000001 0.000001 5.873919 4.654945 -1.245768 11.916904 9.054835 -3.085874 11.916899 9.054851 -3.085877 -4.446405 -1.310005 0.103433 -6.522073 20.356496 -0.274333 0.000001 0.000000 -0.000000 0.000001 0.000000 -0.000000 0.000001 0.000000 -0.000000 1.378545 -0.739785 -7.903412 -14.653896 1.906101 -63.182255 9.710861 -47.108511 6.047772 16.207001 0.733038 18.816705 9.083668 4.677992 -5.520554 -0.331951 0.038623 0.784179 -0.000001 -0.000000 0.000002 -0.907113 -7.041246 -3.803221 0.039700 0.802203 -16.419353 0.000001 -0.000001 -0.000002 1.930537 9.610801 -14.410649 -0.432952 -1.547218 -21.765438 0.000001 -0.000002 -0.000000 2.602016 14.890924 -31.153070 -0.584973 -2.687461 -31.822459 -0.000003 -0.000003 0.000001 4.177245 18.503942 -34.783732 -0.709166 -5.769679 -39.167488 -0.000001 0.000000 -0.000000 -0.000001 0.000002 -0.000002 1.387672 9.470809 9.814582 0.946268 -24.372838 60.130404 -6.687636 41.645166 7.997713 6.308447 12.385772 11.531047 -8.960296 -4.769861 -0.360590 7.828874 -19.062730 -2.853453 -0.000001 0.000000 -0.000002 -1.081169 -1.131109 4.518820 0.137242 -1.117246 16.942484 0.000001 -0.000001 0.000002 -0.670278 -2.916506 12.644382 -0.655387 1.812078 30.490593 -0.000000 0.000001 -0.000000 2.435177 -7.412035 21.627323 -0.994728 3.756682 37.293349 0.000000 0.000001 -0.000001 3.531350 -10.117269 24.192622 -1.460480 7.856878 40.836465 0.000001 -0.000000 0.000002 -0.000003 0.000001 -0.000002 0.000001 0.000001 0.000000 0.000001 0.000001 0.000000 0.000001 0.000001 0.000000 0.000001 0.000001 0.000000 0.000001 0.000001 -0.000001 0.000001 -0.000001 0.000000 0.000001 0.000001 0.000000 0.000001 0.000001 -0.000001 0.000001 -0.000001 0.000000 0.000001 0.000000 -0.000000 0.000001 0.000000 -0.000000 -0.000000 0.000002 -0.000000 
-0.155623 77.263138 -0.544802 -6.087563 -43.038900 -4.015954 -0.000000 0.000001 0.000000 -27.324744 5.714184 13.930876 33.962402 -14.108598 -0.195980 -4.095001 0.703640 -8.145042 -0.000000 -0.000000 -0.000000 -0.000000 -0.000000 -0.000000 0.000000 0.000001 0.000000 -4.300078 -13.701257 -15.668854 32.618292 -8.776902 -0.400654 -20.550748 -4.054069 17.118286 -0.000000 0.000002 -0.000000 -0.000000 0.000002 -0.000000 -0.000001 0.000003 0.000002 5.835710 4.641593 -1.244502 11.839714 9.030538 -3.081554 11.839714 9.030541 -3.081553 -4.309913 -1.284296 0.197012 -6.271510 20.437779 -0.378346 0.000001 0.000000 0.000000 0.000001 0.000000 0.000000 0.000001 0.000000 0.000000 1.383297 -0.696231 -7.880664 -14.260092 2.394322 -63.277085 9.871769 -47.524996 5.927234 16.183076 0.923274 18.797410 9.162309 4.814334 -5.499937 -0.331956 0.038620 0.784182 0.000002 0.000001 0.000001 -0.901632 -6.981194 -3.806765 0.039703 0.802203 -16.419353 -0.000003 0.000000 -0.000002 1.948243 9.683093 -14.539197 -0.436494 -1.556102 -21.882645 0.000007 -0.000000 0.000002 2.604413 14.897264 -31.345470 -0.592732 -2.697999 -32.013056 0.000001 -0.000001 -0.000001 4.169386 18.495193 -34.987555 -0.713252 -5.772452 -39.374313 0.000001 0.000003 0.000002 0.000001 -0.000000 -0.000000 1.405942 9.468725 9.791273 1.219642 -24.271320 60.532736 -6.660686 41.858299 8.041361 6.218212 12.320943 11.674094 -8.900127 -4.904885 -0.381105 7.889406 -19.199959 -2.854568 0.000001 -0.000001 0.000000 -1.072861 -1.214092 4.525481 0.137240 -1.117245 16.942481 0.000001 0.000001 0.000000 -0.671487 -2.911183 12.732119 -0.658156 1.816772 30.578542 -0.000002 -0.000001 -0.000000 2.429538 -7.397980 21.763438 -1.003727 3.768434 37.430830 -0.000002 0.000001 0.000002 3.481045 -10.055086 24.322655 -1.475239 7.870845 41.093317 0.000000 0.000001 0.000000 -0.000000 -0.000000 -0.000001 -0.000001 -0.000002 -0.000000 -0.000001 -0.000002 -0.000000 -0.000001 -0.000002 -0.000000 -0.000001 -0.000002 -0.000000 -0.000001 -0.000002 -0.000000 0.000001 -0.000002 0.000000 -0.000001 -0.000002 -0.000000 -0.000001 -0.000002 -0.000000 0.000001 -0.000002 0.000000 -0.000000 -0.000002 -0.000000 -0.000000 -0.000002 -0.000000 -0.000000 0.000001 0.000000 
-0.155623 77.263138 -0.544802 -6.087563 -43.038900 -4.015954 -0.000000 0.000001 0.000000 -27.324744 5.714184 13.930876 33.962402 -14.108598 -0.195980 -4.095001 0.703640 -8.145042 -0.000000 -0.000000 -0.000000 -0.000000 -0.000000 -0.000000 0.000000 0.000001 0.000000 -4.300078 -13.701257 -15.668854 32.618292 -8.776902 -0.400654 -20.550748 -4.054069 17.118286 -0.000000 0.000002 -0.000000 -0.000000 0.000002 -0.000000 -0.000001 0.000003 0.000002 5.835710 4.641593 -1.244502 11.839714 9.030538 -3.081554 11.839714 9.030541 -3.081553 -4.309913 -1.284296 0.197012 -6.271510 20.437779 -0.378346 0.000001 0.000000 0.000000 0.000001 0.000000 0.000000 0.000001 0.000000 0.000000 1.383297 -0.696231 -7.880664 -14.260092 2.394322 -63.277085 9.871769 -47.524996 5.927234 16.183076 0.923274 18.797410 9.162309 4.814334 -5.499937 -0.331956 0.038620 0.784182 0.000002 0.000001 0.000001 -0.901632 -6.981194 -3.806765 0.039703 0.802203 -16.419353 -0.000003 0.000000 -0.000002 1.948243 9.683093 -14.539197 -0.436494 -1.556102 -21.882645 0.000007 -0.000000 0.000002 2.604413 14.897264 -31.345470 -0.592732 -2.697999 -32.013056 0.000001 -0.000001 -0.000001 4.169386 18.495193 -34.987555 -0.713252 -5.772452 -39.374313 0.000001 0.000003 0.000002 0.000001 -0.000000 -0.000000 1.405942 9.468725 9.791273 1.219642 -24.271320 60.532736 -6.660686 41.858299 8.041361 6.218212 12.320943 11.674094 -8.900127 -4.904885 -0.381105 7.889406 -19.199959 -2.854568 0.000001 -0.000001 0.000000 -1.072861 -1.214092 4.525481 0.137240 -1.117245 16.942481 0.000001 0.000001 0.000000 -0.671487 -2.911183 12.732119 -0.658156 1.816772 30.578542 -0.000002 -0.000001 -0.000000 2.429538 -7.397980 21.763438 -1.003727 3.768434 37.430830 -0.000002 0.000001 0.000002 3.481045 -10.055086 24.322655 -1.475239 7.870845 41.093317 0.000000 0.000001 0.000000 -0.000000 -0.000000 -0.000001 -0.000001 -0.000002 -0.000000 -0.000001 -0.000002 -0.000000 -0.000001 -0.000002 -0.000000 -0.000001 -0.000002 -0.000000 -0.000001 -0.000002 -0.000000 0.000001 -0.000002 0.000000 -0.000001 -0.000002 -0.000000 -0.000001 -0.000002 -0.000000 0.000001 -0.000002 0.000000 -0.000000 -0.000002 -0.000000 -0.000000 -0.000002 -0.000000 -0.000000 0.000001 0.000000 
